<svg width="52" height="52" viewBox="0 0 52 52" fill="none" xmlns="http://www.w3.org/2000/svg">
<path d="M38.9691 25.3117L20.6358 12.8117C20.3799 12.6384 20.0499 12.6192 19.7766 12.7634C19.5041 12.9075 19.3333 13.1909 19.3333 13.5V38.5C19.3333 38.8092 19.5041 39.0925 19.7774 39.2367C19.8991 39.3017 20.0333 39.3333 20.1666 39.3333C20.3308 39.3333 20.4949 39.2842 20.6358 39.1883L38.9691 26.6883C39.1966 26.5333 39.3333 26.2759 39.3333 26C39.3333 25.7242 39.1966 25.4667 38.9691 25.3117ZM20.9999 36.9225V15.0775L37.0208 26L20.9999 36.9225Z" fill="white" fill-opacity="0.7"/>
<path d="M20.7766 12.6051L20.7766 12.6051L20.776 12.6047C20.4442 12.38 20.0155 12.3547 19.66 12.5422L19.6597 12.5424C19.3053 12.7299 19.0833 13.0983 19.0833 13.5V38.5C19.0833 38.9016 19.305 39.2698 19.66 39.4574C19.8193 39.5424 19.994 39.5833 20.1666 39.5833C20.3805 39.5833 20.5937 39.5193 20.7764 39.395L20.7766 39.3949L39.1098 26.895C39.1099 26.8949 39.1099 26.8949 39.1099 26.8949C39.4055 26.6935 39.5833 26.3588 39.5833 26C39.5833 25.6413 39.4055 25.3066 39.1099 25.1051C39.1099 25.1051 39.1099 25.1051 39.1098 25.1051L20.7766 12.6051ZM36.5769 26L21.2499 36.4495V15.5505L36.5769 26Z" stroke="white" stroke-opacity="0.7" stroke-width="0.5"/>
<path d="M26 1C12.215 1 1 12.215 1 26C1 39.785 12.215 51 26 51C39.785 51 51 39.785 51 26C51 12.215 39.785 1 26 1ZM26 49.3333C13.1342 49.3333 2.66667 38.8658 2.66667 26C2.66667 13.1342 13.1342 2.66667 26 2.66667C38.8658 2.66667 49.3333 13.1342 49.3333 26C49.3333 38.8658 38.8658 49.3333 26 49.3333Z" fill="white" fill-opacity="0.7"/>
<path d="M26 0.75C12.0769 0.75 0.75 12.0769 0.75 26C0.75 39.9231 12.0769 51.25 26 51.25C39.9231 51.25 51.25 39.9231 51.25 26C51.25 12.0769 39.9231 0.75 26 0.75ZM26 49.0833C13.2722 49.0833 2.91667 38.7278 2.91667 26C2.91667 13.2722 13.2722 2.91667 26 2.91667C38.7278 2.91667 49.0833 13.2722 49.0833 26C49.0833 38.7278 38.7278 49.0833 26 49.0833Z" stroke="white" stroke-opacity="0.7" stroke-width="0.5"/>
</svg>
